<?xml version="1.0" encoding="utf-8"?>
<!-- Generator: Adobe Illustrator 19.0.0, SVG Export Plug-In . SVG Version: 6.00 Build 0)  -->
<svg version="1.1" id="Camada_1" xmlns="http://www.w3.org/2000/svg" xmlns:xlink="http://www.w3.org/1999/xlink" x="0px" y="0px"
	 viewBox="0 0 100 100" style="enable-background:new 0 0 100 100;" xml:space="preserve">
<style type="text/css">
	.st0{fill:#1B4359;}
	.st1{opacity:0.3;}
	.st2{fill:#160872;}
	.st3{fill:#142B66;}
	.st4{opacity:0.55;}
	.st5{fill:#FFFFFF;}
	.st6{opacity:0.4;}
	.st7{fill:#F6BD91;}
	.st8{display:none;}
	.st9{display:inline;fill:#160872;}
	.st10{fill:#0B0A0A;}
	.st11{opacity:0.2;}
	.st12{fill:#FEFEFE;}
	.st13{filter:url(#Adobe_OpacityMaskFilter);}
	.st14{filter:url(#Adobe_OpacityMaskFilter_1_);}
	.st15{mask:url(#XMLID_75_);fill:url(#XMLID_79_);}
	.st16{opacity:0.5;fill:url(#XMLID_80_);}
	.st17{fill:#C5D3DB;}
	.st18{fill:#B3B2D6;}
	.st19{opacity:0.75;}
	.st20{display:inline;}
	.st21{fill-rule:evenodd;clip-rule:evenodd;fill:#FFFFFF;}
	.st22{fill-rule:evenodd;clip-rule:evenodd;fill:#160872;}
</style>
<g id="XMLID_329_">
	<g id="XMLID_107_">
		<g id="XMLID_421_">
			<path id="XMLID_73_" class="st0" d="M50.9,1.4c21.2,0,38.4,17.2,38.4,38.4c0,21.2-17.2,38.4-38.4,38.4
				c-21.2,0-38.4-17.2-38.4-38.4C12.5,18.6,29.7,1.4,50.9,1.4z"/>
		</g>
		<g id="XMLID_420_">
		</g>
	</g>
</g>
<g id="XMLID_292_" class="st1">
	<path id="XMLID_87_" class="st2" d="M14.4,96.2c12.2,3.2,60.6,3.2,72.9,0c1.1-0.3,0.9-1.6-0.3-1.6H14.8
		C13.6,94.6,13.3,95.9,14.4,96.2z"/>
</g>
<g id="XMLID_290_">
	<path id="XMLID_86_" class="st2" d="M17.9,94.4c1.4-0.3,2.8-0.3,4.1-0.4c1.4,0,2.8,0,4.1,0c1.4,0,2.8,0,4.1,0h4.1h16.5h16.5h8.3
		l2.1,0c0.7,0,1.4,0,2.1,0c1.4,0,2.8,0,4.1,0.4c0.1,0,0.2,0.1,0.1,0.2c0,0.1-0.1,0.1-0.1,0.1c-1.4,0.4-2.8,0.4-4.1,0.4
		c-0.7,0-1.4,0-2.1,0l-2.1,0h-8.3H50.9H34.4h-4.1c-1.4,0-2.8,0-4.1,0c-1.4,0-2.8,0-4.1,0c-1.4,0-2.8-0.1-4.1-0.4
		c-0.1,0-0.2-0.1-0.1-0.2C17.7,94.5,17.8,94.4,17.9,94.4z"/>
</g>
<g id="XMLID_283_">
	<g id="XMLID_288_">
		<path id="XMLID_85_" class="st3" d="M67.9,90.9l0.2,0c6.1-0.7,10.2-6.5,9-12.4l-2.3-11.1c-1-5.1-5.5-8.7-10.7-8.7H50.9h0.4H38
			c-5.2,0-9.6,3.6-10.7,8.7l-2.3,11.1c-1.2,6,2.9,11.7,9,12.4l0.2,0H67.9z"/>
	</g>
	<g id="XMLID_284_">
		<path id="XMLID_285_" class="st2" d="M67.9,90.9H34.3l-0.2,0c-2.9-0.3-5.6-1.9-7.3-4.3c-1.7-2.4-2.4-5.4-1.8-8.3l2.3-11.1
			c1-5.1,5.6-8.8,10.7-8.8h26.1c5.2,0,9.7,3.7,10.7,8.8l2.3,11.1c0.6,2.9-0.1,5.9-1.8,8.3c-1.7,2.4-4.4,3.9-7.3,4.3L67.9,90.9z
			 M38,58.7c-5.1,0-9.6,3.6-10.6,8.6l-2.3,11.1c-0.6,2.8,0.1,5.8,1.7,8.1c1.7,2.3,4.3,3.9,7.2,4.2l0.2,0l33.6,0l0.2,0
			c2.9-0.3,5.5-1.9,7.2-4.2c1.7-2.3,2.3-5.3,1.7-8.1l-2.3-11.1c-1-5-5.5-8.6-10.6-8.6H38z"/>
	</g>
</g>
<g id="XMLID_281_" class="st1">
	<path id="XMLID_82_" class="st2" d="M68.1,90.8l-0.2,0H34.3l-0.2,0c-3.9-0.5-7-3-8.4-6.3c1.5,1.4,3.5,2.3,5.7,2.6l0.2,0h33.6l0.2,0
		c6.1-0.7,10.2-6.5,9-12.4l-2.3-11.1c-0.2-0.7-0.4-1.5-0.7-2.1c1.7,1.5,2.8,3.5,3.3,5.8l2.3,11.1C78.3,84.4,74.1,90.1,68.1,90.8z"/>
</g>
<g id="XMLID_279_" class="st4">
	<path id="XMLID_81_" class="st5" d="M69.5,60c-1.2-0.5-2.6-0.8-4-0.8H39.4c-5.2,0-9.6,3.6-10.7,8.7l-2.3,11.1
		c-0.9,4.6,1.3,9,5,11.1c-4.6-1.8-7.5-6.7-6.4-11.8l2.3-11.1c1-5.1,5.5-8.7,10.7-8.7h26.1C66.1,58.6,67.9,59.1,69.5,60z"/>
</g>
<g id="XMLID_273_">
	<path id="XMLID_78_" class="st3" d="M70.4,50.4c0,0.1-0.1,0.3-0.1,0.4c0,0.1-0.1,0.2-0.1,0.3c0,0,0,0.1,0,0.1c0,0.1,0,0.2-0.1,0.2
		c0,0.1-0.1,0.2-0.1,0.3c0,0,0,0.1,0,0.1c0,0.1-0.1,0.3-0.1,0.4c-0.1,0.2-0.1,0.3-0.2,0.4c-0.1,0.1-0.1,0.3-0.2,0.4
		c-0.1,0.1-0.1,0.3-0.2,0.4c-0.1,0.1-0.1,0.3-0.2,0.4c0,0,0,0,0,0.1c-0.1,0.1-0.1,0.3-0.2,0.4c0,0,0,0,0,0c-0.1,0.1-0.1,0.3-0.2,0.4
		c-0.1,0.2-0.2,0.3-0.3,0.5c-0.1,0.1-0.1,0.2-0.2,0.3c0,0,0,0,0,0C68,55.9,68,56,67.9,56.1c-0.1,0.2-0.3,0.4-0.4,0.7
		c-0.1,0.1-0.1,0.2-0.2,0.3c-0.1,0.1-0.1,0.2-0.2,0.2c-0.1,0.1-0.2,0.2-0.3,0.4c-0.1,0.1-0.2,0.2-0.3,0.3c-0.1,0.1-0.1,0.1-0.2,0.2
		c0,0-0.1,0.1-0.1,0.1c-0.1,0.1-0.1,0.1-0.2,0.2c-0.2,0.2-0.3,0.4-0.5,0.6c-0.1,0.1-0.2,0.2-0.3,0.3c-0.1,0.1-0.1,0.1-0.2,0.2
		c-0.1,0.1-0.2,0.2-0.3,0.3c-0.1,0.1-0.3,0.3-0.4,0.4c-0.1,0.1-0.2,0.2-0.3,0.3c0,0,0,0,0,0c-0.1,0.1-0.2,0.2-0.3,0.3
		c-0.2,0.2-0.4,0.4-0.6,0.6c-0.1,0-0.1,0.1-0.2,0.1c-0.1,0.1-0.2,0.2-0.3,0.3c-0.4,0.3-0.8,0.6-1.2,0.9c0,0,0,0,0,0
		c-1.6,1.1-3.4,2-5.2,2.5c-0.6,0.2-1.3,0.3-1.9,0.5c-2.8,0.5-5.8,0.4-8.6-0.4c-1.9-0.6-3.7-1.4-5.3-2.6c-0.1-0.1-0.3-0.2-0.4-0.3
		c0,0,0,0,0,0c-0.1-0.1-0.3-0.2-0.4-0.3c-0.1-0.1-0.3-0.2-0.4-0.3h0c-0.1-0.1-0.3-0.2-0.4-0.3c-0.1-0.1-0.3-0.2-0.4-0.3
		c-0.1-0.1-0.3-0.2-0.4-0.3c-0.1-0.1-0.2-0.2-0.4-0.3c-0.1-0.1-0.2-0.2-0.4-0.3c-0.1-0.1-0.2-0.2-0.4-0.3c-0.1-0.1-0.2-0.2-0.3-0.4
		c-0.1-0.1-0.2-0.2-0.3-0.4c-0.1-0.1-0.2-0.2-0.3-0.4c-0.1-0.1-0.2-0.2-0.2-0.3c-0.2-0.3-0.5-0.6-0.7-0.9c-0.1-0.1-0.2-0.2-0.3-0.4
		c0,0,0,0,0,0c-0.1-0.1-0.1-0.2-0.2-0.2c-0.1-0.2-0.3-0.4-0.4-0.6c-0.1-0.1-0.1-0.2-0.2-0.3c-0.1-0.2-0.2-0.3-0.3-0.5
		c-0.1-0.1-0.1-0.2-0.2-0.4c-0.1-0.2-0.2-0.3-0.3-0.5c-0.1-0.1-0.1-0.3-0.2-0.4c-0.1-0.1-0.1-0.3-0.2-0.4c0,0,0,0,0-0.1
		c-0.1-0.3-0.3-0.6-0.4-0.8c0,0,0,0,0,0c-0.1-0.1-0.1-0.3-0.2-0.4c-0.1-0.1-0.1-0.3-0.2-0.4c-0.1-0.1-0.1-0.3-0.2-0.5
		c0-0.1-0.1-0.2-0.1-0.3c0-0.1-0.1-0.2-0.1-0.3c0,0,0-0.1,0-0.1c0-0.1-0.1-0.2-0.1-0.3c0-0.1-0.1-0.3-0.1-0.4
		c-1.4-9.5,7.3-20.1,16-24.6c2.2-1.2,4.8-1.2,7,0c0.2,0.1,0.4,0.2,0.6,0.3l0,0C63.4,31,71.7,41.1,70.4,50.4z"/>
</g>
<g id="XMLID_270_">
	<g id="XMLID_271_" class="st6">
		<path id="XMLID_77_" class="st2" d="M54.2,65.8c0.2-0.1,0.5-0.1,0.7-0.2c1.8-0.6,3.6-1.4,5.2-2.5c0,0,0,0,0,0
			c0.4-0.3,0.8-0.6,1.2-0.9c0.1-0.1,0.2-0.2,0.3-0.3c0.1,0,0.1-0.1,0.2-0.1c0.2-0.2,0.4-0.4,0.6-0.6c0.1-0.1,0.2-0.2,0.3-0.3
			c0,0,0,0,0,0c0.1-0.1,0.2-0.2,0.3-0.3c0.1-0.1,0.3-0.3,0.4-0.4c0.1-0.1,0.2-0.2,0.3-0.3c0.1-0.1,0.1-0.1,0.2-0.2
			c0.1-0.1,0.2-0.2,0.3-0.3c0.2-0.2,0.3-0.4,0.5-0.6c0.1-0.1,0.1-0.1,0.2-0.2c0,0,0.1-0.1,0.1-0.1c0.1-0.1,0.1-0.1,0.2-0.2
			c0.1-0.1,0.2-0.2,0.3-0.3c0.1-0.1,0.2-0.2,0.3-0.4c0.1-0.1,0.1-0.2,0.2-0.2c0.1-0.1,0.1-0.2,0.2-0.3c0.2-0.2,0.3-0.4,0.4-0.7
			c0.1-0.1,0.2-0.3,0.3-0.4c0,0,0,0,0,0c0.1-0.1,0.1-0.2,0.2-0.3c0.1-0.2,0.2-0.3,0.3-0.5c0.1-0.1,0.1-0.3,0.2-0.4c0,0,0,0,0,0
			c0.1-0.1,0.1-0.3,0.2-0.4c0,0,0,0,0-0.1c0.1-0.1,0.1-0.3,0.2-0.4c0.1-0.1,0.1-0.3,0.2-0.4c0.1-0.1,0.1-0.3,0.2-0.4
			c0.1-0.1,0.1-0.3,0.2-0.4c0.1-0.1,0.1-0.3,0.1-0.4c0,0,0-0.1,0-0.1c0-0.1,0.1-0.2,0.1-0.3c0-0.1,0-0.2,0.1-0.2c0,0,0-0.1,0-0.1
			c0-0.1,0.1-0.2,0.1-0.3c0-0.1,0.1-0.3,0.1-0.4c1.3-9.2-6.7-19.2-15.1-24.1c5.9,5.3,10.3,12.8,9.3,19.9c0,0.1-0.1,0.3-0.1,0.4
			c0,0.1-0.1,0.2-0.1,0.3c0,0,0,0.1,0,0.1c0,0.1,0,0.2-0.1,0.2c0,0.1-0.1,0.2-0.1,0.3c0,0,0,0.1,0,0.1c0,0.1-0.1,0.3-0.1,0.4
			c-0.1,0.2-0.1,0.3-0.2,0.4c-0.1,0.1-0.1,0.3-0.2,0.4c-0.1,0.1-0.1,0.3-0.2,0.4c-0.1,0.1-0.1,0.3-0.2,0.4c0,0,0,0,0,0.1
			c-0.1,0.1-0.1,0.3-0.2,0.4c0,0,0,0,0,0c-0.1,0.1-0.1,0.3-0.2,0.4c-0.1,0.2-0.2,0.3-0.3,0.5c-0.1,0.1-0.1,0.2-0.2,0.3c0,0,0,0,0,0
			c-0.1,0.1-0.2,0.3-0.3,0.4c-0.1,0.2-0.3,0.4-0.4,0.7c-0.1,0.1-0.1,0.2-0.2,0.3c-0.1,0.1-0.1,0.2-0.2,0.2c-0.1,0.1-0.2,0.2-0.3,0.4
			c-0.1,0.1-0.2,0.2-0.3,0.3c-0.1,0.1-0.1,0.1-0.2,0.2c0,0-0.1,0.1-0.1,0.1c-0.1,0.1-0.1,0.1-0.2,0.2c-0.2,0.2-0.3,0.4-0.5,0.6
			c-0.1,0.1-0.2,0.2-0.3,0.3c-0.1,0.1-0.1,0.1-0.2,0.2c-0.1,0.1-0.2,0.2-0.3,0.3c-0.1,0.1-0.3,0.3-0.4,0.4c-0.1,0.1-0.2,0.2-0.3,0.3
			c0,0,0,0,0,0c-0.1,0.1-0.2,0.2-0.3,0.3c-0.2,0.2-0.4,0.4-0.6,0.6c-0.1,0-0.1,0.1-0.2,0.1c-0.1,0.1-0.2,0.2-0.3,0.3
			c-0.4,0.3-0.8,0.6-1.2,0.9c0,0,0,0,0,0c-1.6,1.1-3.4,2-5.2,2.5c-0.6,0.2-1.3,0.3-1.9,0.5c-1.1,0.2-2.2,0.3-3.2,0.3
			c1.1,0,2.2-0.1,3.2-0.3c0,0,0.1,0,0.1,0C47,61.9,46.6,62,46.2,62c-2.4,0.4-4.8,0.4-7.1-0.1c0,0-0.1,0-0.1-0.1
			c0.1,0.1,0.3,0.2,0.4,0.3c0.1,0.1,0.3,0.2,0.4,0.3c0,0,0,0,0,0c0.1,0.1,0.3,0.2,0.4,0.3c1.7,1.2,3.5,2,5.3,2.6
			C48.3,66.2,51.3,66.4,54.2,65.8c0.2,0,0.6-0.1,0.9-0.2C54.8,65.7,54.5,65.7,54.2,65.8z"/>
	</g>
</g>
<g id="XMLID_268_" class="st4">
	<path id="XMLID_76_" class="st5" d="M58.1,28.2c-0.7-0.5-1.3-0.9-2-1.3l0,0c-0.2-0.1-0.4-0.2-0.6-0.3c-2.2-1.2-4.8-1.2-7,0
		c-8.7,4.5-17.3,15.1-16,24.6c0,0.1,0.1,0.3,0.1,0.4c0,0.1,0,0.2,0.1,0.3c0,0,0,0.1,0,0.1c0,0.1,0.1,0.2,0.1,0.3
		c0,0.1,0.1,0.2,0.1,0.3c0.1,0.2,0.1,0.3,0.2,0.5c0.1,0.2,0.1,0.3,0.2,0.4c0.1,0.1,0.1,0.3,0.2,0.4c0,0,0,0,0,0
		c0.1,0.3,0.2,0.6,0.4,0.8c0,0,0,0,0,0.1c0.1,0.1,0.1,0.3,0.2,0.4c0.1,0.1,0.1,0.3,0.2,0.4c0.1,0.2,0.2,0.3,0.3,0.5
		c0.1,0.1,0.1,0.2,0.2,0.4c0.1,0.2,0.2,0.3,0.3,0.5c0.1,0.1,0.1,0.2,0.2,0.3c0.1,0.2,0.3,0.4,0.4,0.6c0.1,0.1,0.1,0.2,0.2,0.2
		c0,0,0,0,0,0c0.1,0.1,0.2,0.2,0.3,0.4c0.2,0.3,0.5,0.6,0.7,0.9c0.1,0.1,0.2,0.2,0.2,0.3c0.1,0.1,0.2,0.2,0.3,0.4
		c0.1,0.1,0.2,0.2,0.3,0.4c0.1,0.1,0.2,0.2,0.3,0.4c0.1,0.1,0.2,0.2,0.4,0.3c0.1,0.1,0.2,0.2,0.4,0.3c0.1,0.1,0.2,0.2,0.4,0.3
		c0.1,0.1,0.2,0.2,0.4,0.3c0.1,0.1,0.3,0.2,0.4,0.3c0.1,0.1,0.3,0.2,0.4,0.3h0c0.1,0.1,0.3,0.2,0.4,0.3c0.1,0.1,0.2,0.2,0.4,0.3
		c-0.1-0.1-0.3-0.2-0.4-0.3c-0.1-0.1-0.3-0.2-0.4-0.3c0,0,0,0,0,0c-0.1-0.1-0.3-0.2-0.4-0.3c-0.1-0.1-0.3-0.2-0.4-0.3h0
		c-0.1-0.1-0.3-0.2-0.4-0.3c-0.1-0.1-0.3-0.2-0.4-0.3c-0.1-0.1-0.3-0.2-0.4-0.3c-0.1-0.1-0.2-0.2-0.4-0.3c-0.1-0.1-0.2-0.2-0.4-0.3
		c-0.1-0.1-0.2-0.2-0.4-0.3c-0.1-0.1-0.2-0.2-0.3-0.4c-0.1-0.1-0.2-0.2-0.3-0.4c-0.1-0.1-0.2-0.2-0.3-0.4c-0.1-0.1-0.2-0.2-0.2-0.3
		c-0.2-0.3-0.5-0.6-0.7-0.9c-0.1-0.1-0.2-0.2-0.3-0.4c0,0,0,0,0,0c-0.1-0.1-0.1-0.2-0.2-0.2c-0.1-0.2-0.3-0.4-0.4-0.6
		c-0.1-0.1-0.1-0.2-0.2-0.3c-0.1-0.2-0.2-0.3-0.3-0.5c-0.1-0.1-0.1-0.2-0.2-0.4c-0.1-0.2-0.2-0.3-0.3-0.5c-0.1-0.1-0.1-0.3-0.2-0.4
		c-0.1-0.1-0.1-0.3-0.2-0.4c0,0,0,0,0-0.1c-0.1-0.3-0.3-0.6-0.4-0.8c0,0,0,0,0,0c-0.1-0.1-0.1-0.3-0.2-0.4c-0.1-0.1-0.1-0.3-0.2-0.4
		C32.1,52.3,32,52.2,32,52c0-0.1-0.1-0.2-0.1-0.3c0-0.1-0.1-0.2-0.1-0.3c0,0,0-0.1,0-0.1c0-0.1-0.1-0.2-0.1-0.3
		c0-0.1-0.1-0.3-0.1-0.4c-1.4-9.5,7.3-20.1,16-24.6c2.2-1.2,4.8-1.2,7,0c0.2,0.1,0.4,0.2,0.6,0.3l0,0C56.1,26.9,57.1,27.5,58.1,28.2
		z"/>
</g>
<g id="XMLID_160_">
	<g id="XMLID_252_">
		<g id="XMLID_257_">
			<path id="XMLID_68_" class="st7" d="M66,53.1c0,0.1-0.1,0.2-0.1,0.3c-1,2.6-3,3.9-4.2,2.4l0.7-3.5L63,50
				C64.8,48.7,67.3,49.3,66,53.1z"/>
		</g>
		<g id="XMLID_253_">
			<path id="XMLID_254_" class="st2" d="M63,56.6c-0.5,0-0.9-0.2-1.2-0.7l0,0l1.2-5.9l0,0c1-0.7,2.2-0.8,2.8-0.3
				c0.4,0.3,1.1,1.2,0.3,3.5l0,0c0,0.1-0.1,0.2-0.1,0.3c-0.7,1.7-1.8,2.9-2.8,3.1C63.1,56.6,63,56.6,63,56.6z M61.8,55.8
				c0.4,0.5,0.8,0.7,1.3,0.6c1-0.1,2.1-1.3,2.7-3c0-0.1,0.1-0.2,0.1-0.3l0,0c0.5-1.6,0.4-2.9-0.3-3.4C65.1,49.2,64,49.4,63,50
				L61.8,55.8z"/>
		</g>
	</g>
	<g id="XMLID_250_" class="st1">
		<path id="XMLID_65_" class="st2" d="M66,53.1c0,0.1-0.1,0.2-0.1,0.3c-1,2.6-3,3.9-4.2,2.4l0.7-3.5c0.2,0,0.3,0,0.3,0
			c0.7,2.3,1.8,2.5,3.2,0.6C65.9,52.9,65.9,53,66,53.1z"/>
	</g>
	<g id="XMLID_246_">
		<path id="XMLID_247_" class="st2" d="M63,56.9c-0.6,0-1.1-0.3-1.5-0.8c-0.1-0.1-0.1-0.2-0.1-0.4l1.2-5.9c0-0.1,0.1-0.2,0.2-0.3
			c1.2-0.8,2.5-0.9,3.3-0.3c0.5,0.4,1.3,1.5,0.3,4.3c-0.7,1.9-1.9,3.1-3.1,3.3C63.1,56.9,63,56.9,63,56.9z M62.2,55.7
			c0.3,0.3,0.5,0.4,0.9,0.3c0.9-0.1,1.8-1.2,2.4-2.8c0.6-1.6,0.6-2.8,0-3.3c-0.5-0.4-1.3-0.3-2.1,0.2L62.2,55.7z"/>
	</g>
	<g id="XMLID_239_">
		<g id="XMLID_244_">
			<path id="XMLID_62_" class="st7" d="M35.7,53.1c0,0.1,0.1,0.2,0.1,0.3c1,2.6,3,3.9,4.2,2.4l-0.7-3.5L38.8,50
				C36.9,48.7,34.4,49.3,35.7,53.1z"/>
		</g>
		<g id="XMLID_240_">
			<path id="XMLID_241_" class="st2" d="M38.8,56.6c-0.1,0-0.1,0-0.2,0c-1.1-0.1-2.2-1.4-2.8-3.1c0-0.1-0.1-0.2-0.1-0.3v0
				c-0.8-2.3-0.1-3.2,0.3-3.6c0.7-0.5,1.8-0.4,2.9,0.3l0,0l1.2,5.9l0,0C39.7,56.4,39.3,56.6,38.8,56.6z M35.8,53.1
				c0,0.1,0.1,0.2,0.1,0.3c0.6,1.7,1.7,2.8,2.7,3c0.5,0.1,0.9-0.1,1.3-0.6L38.7,50c-1-0.6-2-0.8-2.6-0.3
				C35.3,50.3,35.2,51.5,35.8,53.1L35.8,53.1z"/>
		</g>
	</g>
	<g id="XMLID_237_" class="st4">
		<path id="XMLID_59_" class="st5" d="M38.4,56.5c-0.9-0.3-1.9-1.4-2.5-3c0-0.1-0.1-0.2-0.1-0.3c-1.3-3.9,1.2-4.4,3.1-3.2l0,0
			c-1.7-0.6-3.4,0.2-2.3,3.6c0,0.1,0.1,0.2,0.1,0.3C37.1,55.1,37.7,55.9,38.4,56.5z"/>
	</g>
	<g id="XMLID_233_">
		<path id="XMLID_234_" class="st2" d="M38.8,56.9c-0.1,0-0.2,0-0.3,0c-1.2-0.2-2.4-1.4-3.1-3.3c-1-2.7-0.2-3.8,0.3-4.3
			c0.8-0.6,2.1-0.5,3.3,0.3c0.1,0.1,0.2,0.2,0.2,0.3l1.2,5.9c0,0.1,0,0.3-0.1,0.4C39.9,56.6,39.4,56.9,38.8,56.9z M37,49.8
			c-0.3,0-0.6,0.1-0.8,0.2c-0.6,0.5-0.6,1.7,0,3.3c0.6,1.5,1.6,2.6,2.4,2.7c0.3,0,0.6-0.1,0.9-0.3l-1.1-5.5
			C37.9,50,37.4,49.8,37,49.8z"/>
	</g>
	<g id="XMLID_226_">
		<g id="XMLID_231_">
			<path id="XMLID_56_" class="st7" d="M62.7,52.4v2c0,3.5-1.7,6.7-4.5,8.7c0,0-0.1,0.1-0.1,0.1c-4.3,2.9-10,2.9-14.4,0
				c0,0-0.1-0.1-0.1-0.1c-2.8-2-4.5-5.2-4.5-8.7v-2c0,0,0-0.1,0-0.4c0.1-1.8,0.6-10.1,0.7-10.3C42.4,34.9,68.2,36.6,62.7,52.4z"/>
		</g>
		<g id="XMLID_227_">
			<path id="XMLID_228_" class="st2" d="M50.9,65.5c-2.5,0-5-0.7-7.2-2.2c0,0-0.1-0.1-0.1-0.1c-2.9-2-4.6-5.2-4.6-8.8v-2
				c0,0,0-0.1,0-0.4c0.2-3,0.6-10.1,0.7-10.3c0.7-1.8,3-3.2,6.3-3.7c3.2-0.5,7-0.2,10,0.9c3.1,1.1,9.8,4.6,6.8,13.5v2
				c0,3.5-1.7,6.8-4.5,8.8l0,0c0,0,0,0-0.1,0C55.9,64.8,53.4,65.5,50.9,65.5z M49.1,38c-1,0-2.1,0.1-3,0.2c-3.3,0.5-5.5,1.8-6.2,3.6
				c-0.1,0.2-0.4,5.7-0.7,10.2c0,0.2,0,0.4,0,0.4l0,2c0,3.5,1.7,6.7,4.5,8.6c0,0,0.1,0.1,0.1,0.1c4.3,2.9,9.9,2.9,14.3,0
				c0,0,0,0,0.1-0.1l0,0c2.8-1.9,4.5-5.1,4.5-8.6l0-2c3-8.7-3.6-12.2-6.6-13.2C53.9,38.4,51.4,38,49.1,38z"/>
		</g>
	</g>
	<g id="XMLID_224_" class="st1">
		<path id="XMLID_53_" class="st2" d="M62.7,52.4v2c0,3.5-1.7,6.7-4.5,8.7c0,0-0.1,0.1-0.1,0.1c-4.3,2.9-10,2.9-14.4,0
			c0,0-0.1-0.1-0.1-0.1c-0.1-0.1-0.2-0.1-0.3-0.2c4.1,2,9,1.7,12.8-0.9c0,0,0.1-0.1,0.1-0.1c2.8-2,4.5-5.2,4.5-8.7l0.2-2.5
			c1.9-5.4,0-8.6-3.3-11C62.1,42,64.9,46,62.7,52.4z"/>
	</g>
	<g id="XMLID_222_" class="st1">
		<path id="XMLID_52_" class="st2" d="M62.7,52.4v0.8c-1.3-1.9-1.5-7.1-1.5-7.1c-1.1,1.2-7.5,2.7-12,0.3c-0.2-0.1-0.5,0.1-0.4,0.4
			c0.1,0.1,0.1,0.1,0.1,0.1c-0.6,0.4-3.4,0-4.9-0.9c-0.4-0.2-1,0-1,0.5c-0.3,2.1-1.4,3.6-3.7,5.9c-0.1-0.1-0.1-0.2-0.2-0.4
			c0.1-1.8,0.6-10.1,0.7-10.3C42.4,34.9,68.2,36.6,62.7,52.4z"/>
	</g>
	<g id="XMLID_220_" class="st4">
		<path id="XMLID_51_" class="st5" d="M55.8,64.4c-3.9,1.6-8.5,1.2-12.1-1.2c0,0-0.1-0.1-0.1-0.1c-2.8-2-4.5-5.2-4.5-8.7v-2
			c0,0,0.6-10.4,0.7-10.6c0.5-1.5,2.1-2.5,4.2-3.2c-1.6,0.7-2.7,1.6-3.2,2.8c-0.1,0.2-0.7,10.6-0.7,10.6v2c0,3.5,1.7,6.7,4.5,8.7
			c0,0,0.1,0,0.1,0.1C47.6,65.4,52.1,65.6,55.8,64.4z"/>
	</g>
	<g id="XMLID_213_" class="st8">
		<path id="XMLID_214_" class="st9" d="M50.9,65.8c-2.6,0-5.2-0.8-7.4-2.3c0,0-0.1-0.1-0.1-0.1c-2.9-2-4.7-5.4-4.7-9v-2c0,0,0,0,0,0
			c0.6-10.4,0.7-10.7,0.7-10.8l0,0c1.6-4.3,10.6-5.2,16.8-3c3,1.1,5.2,2.8,6.5,4.9c1.5,2.5,1.7,5.5,0.5,9v1.9c0,3.6-1.8,7-4.7,9
			l-0.1,0.1C56.1,65.1,53.5,65.8,50.9,65.8z M39.5,52.5v2c0,3.4,1.6,6.5,4.3,8.3c0,0,0.1,0.1,0.1,0.1c4.2,2.8,9.7,2.8,13.9,0
			l0.1-0.1c2.7-1.9,4.3-5,4.3-8.3v-2c0,0,0-0.1,0-0.1c2.9-8.4-3.5-11.8-6.4-12.8c-6.3-2.3-14.3-1-15.7,2.4
			C40.1,42.5,39.8,48.5,39.5,52.5z M40.2,42C40.2,42,40.2,42,40.2,42C40.2,42,40.2,42,40.2,42z M40.2,42C40.2,42,40.2,42,40.2,42
			C40.2,42,40.2,42,40.2,42z M39.8,41.8L39.8,41.8L39.8,41.8z"/>
	</g>
	<g id="XMLID_206_">
		<g id="XMLID_207_">
			<g id="XMLID_127_">
				<g id="XMLID_339_">
					<path id="XMLID_72_" class="st10" d="M53.8,31.1c4.6,0.5,9.7,2.9,11,6.9l-2.2-0.5h-0.2l0.1,0.1c0.4,0.6,0.8,1.2,1.2,1.9
						c1.9,4.2,1.2,10-1,13.1c-2-1.2-2.1-6.5-2.1-6.5V46h-0.1c-5.3,1.5-10.2,0.3-14.5-3.4l-0.1-0.1l0,0.2c0,1.3,0.8,2.4,1.1,2.9
						c-0.5,0-0.9-0.1-1.4-0.3C44,45,43,43.9,42.3,42.2l-0.1-0.4l-0.1,1c-0.5,4.5-0.6,5.8-3,9.4c-2.5-5.4-2.9-11.9,1.3-13.9l0.2-0.1
						l-0.2,0c-2.4-0.8-3.4-2-3.5-2.8c0-0.4,0.1-0.7,0.4-0.8c0.7-0.4,2.2-0.3,4.3,1.2l0.4,0.3l-0.3-0.4c-1.1-1.5-1.1-2.5-0.8-3
						c0.1-0.2,0.3-0.3,0.5-0.2c0.5,0.1,1.1,0.8,1.3,2.3l0,0.3l0.1-0.2C45,31.4,49.9,30.6,53.8,31.1z"/>
					<path id="XMLID_71_" class="st2" d="M64.8,38c-1.2-4.1-6.4-6.4-11-6.9c-4-0.4-8.9,0.4-10.8,3.8l-0.1,0.2l0-0.3
						c-0.2-1.5-0.8-2.2-1.3-2.3c-0.2,0-0.4,0-0.5,0.2c-0.3,0.5-0.3,1.5,0.8,3l0.3,0.4l-0.4-0.3c-2.1-1.6-3.7-1.6-4.3-1.2
						c-0.3,0.1-0.4,0.4-0.4,0.8c0.1,0.8,1,1.9,3.5,2.8l0.2,0l-0.2,0.1c-4.1,1.9-3.8,8.4-1.3,13.9c2.4-3.5,2.5-4.8,3-9.4l0.1-1
						l0.1,0.4c0.7,1.6,1.7,2.7,3.2,3.1c0.4,0.1,0.9,0.2,1.4,0.3c-0.4-0.4-1.2-1.6-1.1-2.9l0-0.2l0.1,0.1c4.3,3.7,9.1,4.9,14.5,3.4
						h0.1v0.1c0,0.1,0.2,5.3,2.1,6.5c2.3-3.2,2.9-9,1-13.1c2,4.2,1.3,10-1,13.3c-2.1-1.2-2.3-6.7-2.3-6.7c-4.9,1.4-10,0.5-14.6-3.4
						c-0.1,1.6,1.2,3,1.2,3c-0.6,0-1.1-0.1-1.6-0.3c-1.6-0.5-2.6-1.7-3.3-3.2c-0.6,5.2-0.6,6.4-3.2,10.2c-2.5-5.4-3-12.1,1.2-14.1
						c-5.8-2-3.7-6.1,1.3-2.5c-2.4-3.5,0.7-4.9,1.3-1c3.7-6.7,19.8-4.3,22,3.3l-2.4-0.5c0.5,0.6,0.8,1.2,1.1,2
						c-0.3-0.7-0.7-1.3-1.2-1.9l-0.1-0.1h0.2L64.8,38z"/>
					<path id="XMLID_20_" class="st2" d="M62.7,52.8c2.3-3.3,2.9-9.1,1-13.3c-0.3-0.7-0.6-1.4-1.1-2l2.4,0.5
						c-2.2-7.6-18.3-9.9-22-3.3c-0.6-3.9-3.7-2.5-1.3,1c-5-3.6-7.2,0.5-1.3,2.5c-4.2,2-3.7,8.7-1.2,14.1c2.5-3.8,2.6-4.9,3.2-10.2
						c0.6,1.5,1.6,2.7,3.3,3.2c0.4,0.2,1,0.2,1.6,0.3c0,0-1.3-1.4-1.2-3c4.6,3.9,9.6,4.8,14.6,3.4C60.4,46.1,60.6,51.6,62.7,52.8z
						 M37.2,34.5c0.7-0.4,2.1-0.3,4.1,1c-0.8-1.3-0.8-2.4-0.5-2.8c0.2-0.3,0.4-0.4,0.8-0.3c0.5,0.1,1.2,0.8,1.4,2.2
						c2-3.3,6.9-4.1,10.8-3.7c4.7,0.5,10,2.9,11.2,7.2l0,0.1l-2.3-0.5c3.2,4.3,2.6,11.4,0,15.1l0,0l0,0c-2-1.1-2.3-5.8-2.3-6.6
						c-5.3,1.4-10.1,0.3-14.4-3.3c0,1.4,1.2,2.7,1.2,2.7l0.1,0.2h-0.2c-0.6,0-1.1-0.1-1.6-0.3c-1.4-0.4-2.4-1.4-3.2-2.9l0,0.3
						c-0.5,4.7-0.6,5.9-3.1,9.6l-0.1,0.1L39,52.5c-2.5-5.5-3-12,1.1-14.2c-2.4-0.8-3.3-2-3.4-2.9C36.6,35.1,36.8,34.7,37.2,34.5z"/>
				</g>
				<g id="XMLID_338_">
				</g>
			</g>
		</g>
	</g>
	<g id="XMLID_204_" class="st1">
		<path id="XMLID_42_" class="st2" d="M41.6,41.4c0.2,0.4,0.4,0.9,0.5,1.4c-0.5,4.8-0.6,6-3.1,9.6c-0.3-0.6-0.5-1.2-0.8-1.9
			c2-3.1,2.2-4.9,2.7-9.1C41.1,41.1,41.5,41.1,41.6,41.4z"/>
	</g>
	<g id="XMLID_202_" class="st4">
		<path id="XMLID_41_" class="st5" d="M40.7,35.2c-3.2-1.4-4.3,1-1.2,2.8C35,36,36.6,32.8,40.7,35.2z"/>
	</g>
	<g id="XMLID_200_" class="st4">
		<path id="XMLID_40_" class="st5" d="M40.2,38.4C40.2,38.4,40.2,38.4,40.2,38.4c0.4,0.2,0.5,0.7,0.2,1c-2.9,2.4-2.8,7.8-0.9,12.5
			c-0.1,0.2-0.3,0.4-0.4,0.6C36.6,47,36.1,40.4,40.2,38.4z"/>
	</g>
	<g id="XMLID_198_" class="st4">
		<path id="XMLID_39_" class="st5" d="M41.5,35.8L41.5,35.8c-1.7-2.6-0.2-4.1,0.9-2.9c-0.6,0.1-0.9,1-0.3,2.3
			C42.2,35.6,41.8,35.9,41.5,35.8z"/>
	</g>
	<g id="XMLID_196_" class="st4">
		<path id="XMLID_38_" class="st5" d="M61.7,34.1C59,32.9,55.2,32,51.9,32c-0.5,1-2.3,0.9-3,0.2c-1.9,0.3-3.5,1.1-4.5,2.3
			c-0.3,0.3-0.8,0.3-1.1-0.1c0,0,0,0,0-0.1C46.4,30.3,57,30,61.7,34.1z"/>
	</g>
	<g id="XMLID_192_">
		<path id="XMLID_193_" d="M62.7,53.2c-0.1,0-0.1,0-0.2-0.1c-1.9-1.1-2.3-5-2.4-6.5c-4.9,1.2-9.5,0.2-13.6-2.9
			c0.3,0.9,0.9,1.6,0.9,1.7c0.1,0.1,0.1,0.3,0.1,0.5c-0.1,0.2-0.2,0.3-0.4,0.3c0,0,0,0,0,0c-2-0.1-3.5-0.9-4.5-2.4
			c-0.5,4.1-0.7,5.4-3.1,8.9c-0.1,0.1-0.2,0.2-0.4,0.2c-0.2,0-0.3-0.1-0.4-0.2c-2.5-5.3-3-11.7,0.6-14.2c-2.1-0.9-2.9-2-3-2.9
			c-0.1-0.6,0.2-1,0.7-1.3c0.7-0.4,1.9-0.4,3.5,0.4c-0.4-1-0.3-1.7,0-2.1c0.3-0.4,0.7-0.6,1.1-0.5c0.6,0.1,1.2,0.8,1.5,1.7
			c2.3-3,6.9-3.6,10.7-3.2c4.8,0.5,10.2,3,11.5,7.4c0,0.1,0,0.3-0.1,0.4c-0.1,0.1-0.3,0.2-0.4,0.1l-1.3-0.3c1.2,1.9,1.8,4.4,1.8,7.1
			c0,3-0.9,5.8-2.3,7.7C62.9,53.1,62.8,53.2,62.7,53.2z M60.4,45.7c0.1,0,0.2,0,0.3,0.1c0.1,0.1,0.2,0.2,0.2,0.3
			c0,1.4,0.4,4.9,1.7,6c2.4-3.7,2.7-10.4-0.3-14.3c-0.1-0.1-0.1-0.3,0-0.5c0.1-0.2,0.3-0.2,0.5-0.2l1.6,0.3
			c-1.5-3.5-6.2-5.6-10.5-6.1c-4.8-0.5-8.9,0.9-10.4,3.6c-0.1,0.2-0.3,0.3-0.5,0.2c-0.2,0-0.3-0.2-0.4-0.4c-0.2-1.5-0.8-2-1.1-2
			c-0.1,0-0.1,0-0.2,0.1c-0.2,0.3-0.3,1.2,0.8,2.6c0.1,0.2,0.1,0.4-0.1,0.6c-0.2,0.1-0.4,0.2-0.6,0c-1.9-1.3-3.3-1.6-3.9-1.2
			c-0.2,0.1-0.3,0.3-0.3,0.5c0.1,0.7,1.1,1.7,3.2,2.5c0.2,0.1,0.3,0.2,0.3,0.4c0,0.2-0.1,0.3-0.2,0.4c-2.3,1.1-2.8,3.5-2.9,5.4
			c-0.1,2.2,0.5,4.9,1.6,7.4c2-3.1,2.1-4.3,2.6-8.7l0.1-0.6c0-0.2,0.2-0.4,0.4-0.4c0.2,0,0.4,0.1,0.5,0.3c0.7,1.8,1.8,2.8,3.5,3.1
			c-0.4-0.6-0.8-1.5-0.7-2.5c0-0.2,0.1-0.3,0.3-0.4c0.2-0.1,0.3,0,0.5,0.1c4.2,3.6,9,4.7,14.2,3.3C60.4,45.7,60.4,45.7,60.4,45.7z"
			/>
	</g>
	<g id="XMLID_190_">
		<path id="XMLID_35_" class="st2" d="M60.4,46.6c-0.2,0-0.4-0.1-0.4-0.3c-0.1-0.2,0.1-0.5,0.3-0.5c0.5-0.1,1.1-0.3,1.6-0.5
			c0.2-0.1,0.5,0,0.6,0.3s0,0.5-0.3,0.6c-0.6,0.2-1.1,0.4-1.7,0.5C60.5,46.6,60.5,46.6,60.4,46.6z"/>
	</g>
	<g id="XMLID_188_" class="st1">
		<path id="XMLID_34_" class="st2" d="M62.7,52.8c-2.1-1.2-2.2-6.6-2.2-6.6c-5,1.4-10,0.5-14.6-3.4c-0.1,1.5,1.2,3,1.2,3
			c-0.6,0-1.1-0.1-1.6-0.2c-2.4-3.9-1.4-4.8,2.1-3.6c9.5,3.1,16.4,3.5,15-4.3C65.8,41.7,65.4,49,62.7,52.8z"/>
	</g>
	<g id="XMLID_186_" class="st11">
		<path id="XMLID_33_" class="st12" d="M60.3,41.2c0,0.7-1.3,1.2-2.9,1.2c-1.6,0-2.9-0.5-2.9-1.2s1.3-0.7,2.9-0.7
			C59,40.5,60.3,40.5,60.3,41.2z"/>
	</g>
	<g id="XMLID_183_">
		<g id="XMLID_184_">
			<path id="XMLID_32_" class="st2" d="M52.4,60.5c0,0-0.6,0.4-2.2,0.4c-0.4,0-1.4,0-2.6-1.2c0,0,0.6,1.7,2.6,1.7
				C50.1,61.4,51.3,61.5,52.4,60.5z"/>
		</g>
	</g>
	<g id="XMLID_181_">
		<path id="XMLID_31_" class="st2" d="M43.2,52.9c0.1-0.4,0.5-0.8,0.9-1.1c0.4-0.3,0.9-0.4,1.4-0.4c0.5,0,1,0.1,1.4,0.4
			c0.4,0.2,0.7,0.6,0.9,1c-0.4-0.2-0.8-0.3-1.2-0.3c-0.4-0.1-0.7-0.1-1.1-0.1c-0.4,0-0.7,0-1.1,0.1C44,52.6,43.6,52.8,43.2,52.9z"/>
	</g>
	<g id="XMLID_179_">
		<path id="XMLID_30_" class="st2" d="M58.8,52.9c-0.4-0.2-0.8-0.3-1.2-0.4c-0.4-0.1-0.7-0.1-1.1-0.1c-0.4,0-0.7,0-1.1,0.1
			c-0.4,0.1-0.7,0.2-1.2,0.3c0.2-0.4,0.5-0.8,0.9-1c0.4-0.2,0.9-0.4,1.4-0.4c0.5,0,1,0.1,1.4,0.4C58.3,52.1,58.6,52.5,58.8,52.9z"/>
	</g>
	<g id="XMLID_177_">
		<ellipse id="XMLID_29_" class="st2" cx="45.9" cy="55.6" rx="1.5" ry="2"/>
	</g>
	<g id="XMLID_170_">
		<g id="XMLID_175_">
			<ellipse id="XMLID_28_" class="st5" cx="46.2" cy="55.1" rx="0.5" ry="0.7"/>
		</g>
		<g id="XMLID_171_">
			<path id="XMLID_172_" class="st2" d="M46.2,55.9c-0.3,0-0.5-0.3-0.5-0.8c0-0.4,0.2-0.8,0.5-0.8c0.3,0,0.5,0.3,0.5,0.8
				C46.8,55.5,46.5,55.9,46.2,55.9z M46.2,54.6c-0.2,0-0.4,0.3-0.4,0.6c0,0.3,0.2,0.6,0.4,0.6c0.2,0,0.4-0.3,0.4-0.6
				C46.6,54.8,46.4,54.6,46.2,54.6z"/>
		</g>
	</g>
	<g id="XMLID_168_">
		<ellipse id="XMLID_25_" class="st2" cx="56.2" cy="55.6" rx="1.5" ry="2"/>
	</g>
	<g id="XMLID_161_">
		<g id="XMLID_166_">
			<ellipse id="XMLID_24_" class="st5" cx="55.8" cy="55.1" rx="0.5" ry="0.7"/>
		</g>
		<g id="XMLID_162_">
			<path id="XMLID_163_" class="st2" d="M55.8,55.9c-0.3,0-0.5-0.3-0.5-0.8c0-0.4,0.2-0.8,0.5-0.8c0.3,0,0.5,0.3,0.5,0.8
				C56.4,55.5,56.1,55.9,55.8,55.9z M55.8,54.6c-0.2,0-0.4,0.3-0.4,0.6c0,0.3,0.2,0.6,0.4,0.6c0.2,0,0.4-0.3,0.4-0.6
				C56.2,54.8,56,54.6,55.8,54.6z"/>
		</g>
	</g>
</g>
<defs>
	<filter id="Adobe_OpacityMaskFilter" filterUnits="userSpaceOnUse" x="21.2" y="51.9" width="53.1" height="40.5">
		<feFlood  style="flood-color:white;flood-opacity:1" result="back"/>
		<feBlend  in="SourceGraphic" in2="back" mode="normal"/>
	</filter>
</defs>
<mask maskUnits="userSpaceOnUse" x="21.2" y="51.9" width="53.1" height="40.5" id="XMLID_75_">
	<g id="XMLID_191_" class="st13">
		<defs>
			<filter id="Adobe_OpacityMaskFilter_1_" filterUnits="userSpaceOnUse" x="21.2" y="51.9" width="53.1" height="40.5">
				<feFlood  style="flood-color:white;flood-opacity:1" result="back"/>
				<feBlend  in="SourceGraphic" in2="back" mode="normal"/>
			</filter>
		</defs>
		<mask maskUnits="userSpaceOnUse" x="21.2" y="51.9" width="53.1" height="40.5" id="XMLID_75_">
			<g id="XMLID_385_" class="st14">
			</g>
		</mask>
		<linearGradient id="XMLID_79_" gradientUnits="userSpaceOnUse" x1="47.7098" y1="52.0401" x2="47.4292" y2="92.4489">
			<stop  offset="0" style="stop-color:#000000"/>
			<stop  offset="1" style="stop-color:#FFFFFF"/>
		</linearGradient>
		<polygon id="XMLID_199_" class="st15" points="63.5,92.3 32,92.3 21.2,51.9 74.2,52.3 		"/>
	</g>
</mask>
<linearGradient id="XMLID_80_" gradientUnits="userSpaceOnUse" x1="47.7098" y1="52.0401" x2="47.4292" y2="92.4489">
	<stop  offset="0" style="stop-color:#46B9D5"/>
	<stop  offset="1" style="stop-color:#46B9D5"/>
</linearGradient>
<polygon id="XMLID_21_" class="st16" points="63.5,92.3 32,92.3 21.2,51.9 74.2,52.3 "/>
<g id="XMLID_111_">
	<g id="XMLID_147_">
		<g id="XMLID_152_">
			<path id="XMLID_19_" class="st17" d="M72.7,90.6c-0.2,1.1-0.9,2.1-1.7,2.8c-0.9,0.7-1.9,1.1-3.1,1.1H34.7c-2.3,0-4.4-1.6-4.8-3.9
				H72.7z"/>
		</g>
		<g id="XMLID_148_">
			<path id="XMLID_149_" class="st2" d="M67.9,94.7H34.7c-2.4,0-4.4-1.7-4.9-4l0-0.1h43.1l0,0.1c-0.2,1.1-0.8,2.2-1.7,2.9
				C70.2,94.3,69,94.7,67.9,94.7z M30,90.7c0.5,2.2,2.5,3.8,4.7,3.8h33.2c1.1,0,2.2-0.4,3.1-1.1c0.8-0.7,1.4-1.6,1.7-2.7H30z"/>
		</g>
	</g>
	<g id="XMLID_143_">
		<path id="XMLID_144_" class="st2" d="M67.9,95.1H34.7c-2.6,0-4.8-1.8-5.4-4.4c0-0.2,0-0.3,0.1-0.5c0.1-0.1,0.3-0.2,0.4-0.2h42.9
			c0.2,0,0.3,0.1,0.4,0.2c0.1,0.1,0.1,0.3,0.1,0.5C72.7,93.3,70.5,95.1,67.9,95.1z M30.6,91.2c0.6,1.7,2.3,2.9,4.1,2.9h33.2
			c1.8,0,3.5-1.2,4.1-2.9H30.6z"/>
	</g>
	<g id="XMLID_141_" class="st1">
		<path id="XMLID_14_" class="st2" d="M72.7,90.6c-0.2,1.1-0.9,2.1-1.7,2.8c-0.9,0.7-1.9,1.1-3.1,1.1H47.3c3.4-0.2,6.4-1.1,8.9-2.9
			c0,0,0.2-0.4,0.6-1.1H72.7z"/>
	</g>
	<g id="XMLID_134_">
		<g id="XMLID_139_">
			<path id="XMLID_13_" class="st18" d="M72.7,69.8L71,89.6c-0.1,1.2-1.1,2.1-2.3,2.1H33.9c-1.2,0-2.2-0.9-2.3-2.1l-1.7-19.8
				c-0.2-1.9,1.4-3.6,3.3-3.6h36.2c0.6,0,1.2,0.2,1.7,0.5C72.2,67.3,72.8,68.5,72.7,69.8z"/>
		</g>
		<g id="XMLID_135_">
			<path id="XMLID_136_" class="st18" d="M68.6,91.8H33.9c-1.3,0-2.3-1-2.4-2.2l-1.7-19.8c-0.1-1,0.2-1.9,0.9-2.6
				c0.6-0.7,1.6-1.1,2.5-1.1h36.2c0.6,0,1.2,0.2,1.8,0.5c1.1,0.7,1.7,1.9,1.6,3.2v0l-1.7,19.8C70.9,90.9,69.9,91.8,68.6,91.8z
				 M33.2,66.3c-0.9,0-1.8,0.4-2.4,1c-0.6,0.7-0.9,1.6-0.8,2.5l1.7,19.8c0.1,1.2,1.1,2,2.2,2h34.7c1.2,0,2.1-0.9,2.2-2l1.7-19.8
				c0.1-1.2-0.5-2.4-1.5-3c-0.5-0.3-1.1-0.5-1.7-0.5H33.2z"/>
		</g>
	</g>
	<g id="XMLID_132_" class="st19">
		<path id="XMLID_10_" class="st5" d="M72.1,67.7c-0.4-0.2-0.9-0.3-1.4-0.3H34.5c-1.9,0-3.5,1.7-3.3,3.6L33,90.7
			c0,0.3,0.1,0.6,0.2,0.9c-0.9-0.3-1.5-1.1-1.6-2l-1.7-19.8c-0.2-1.9,1.4-3.6,3.3-3.6h36.2C70.5,66.2,71.6,66.8,72.1,67.7z"/>
	</g>
	<g id="XMLID_128_">
		<path id="XMLID_129_" class="st2" d="M68.6,92.3H33.9c-1.5,0-2.7-1.1-2.9-2.6l-1.7-19.8c-0.1-1.1,0.3-2.2,1-2.9
			c0.7-0.8,1.8-1.3,2.8-1.3h36.2c1.1,0,2.1,0.5,2.8,1.3c0.7,0.8,1.1,1.9,1,2.9l-1.7,19.8C71.4,91.1,70.1,92.3,68.6,92.3z M33.2,66.8
			c-0.8,0-1.5,0.3-2,0.9c-0.5,0.6-0.8,1.3-0.7,2.1l1.7,19.8c0.1,0.9,0.9,1.6,1.8,1.6h34.7c0.9,0,1.7-0.7,1.8-1.6l1.7-19.8
			c0.1-0.8-0.2-1.5-0.7-2.1c-0.5-0.6-1.3-0.9-2-0.9H33.2z"/>
	</g>
	<g id="XMLID_126_" class="st1">
		<path id="XMLID_7_" class="st2" d="M72.7,69.8L71,89.6c-0.1,1.2-1.1,2.1-2.3,2.1H37.3c19.3-1.5,31.2-9.3,33.8-25l0,0
			C72.2,67.3,72.8,68.5,72.7,69.8z"/>
	</g>
	<g id="XMLID_124_" class="st1">
		<path id="XMLID_6_" class="st5" d="M38.6,82.8L36.4,83c-0.6,0.1-1.1-0.4-1.1-0.9l-0.7-8c-0.1-0.6,0.4-1.1,0.9-1.1l2.2-0.2
			c0.6-0.1,1.1,0.4,1.1,0.9l0.7,8C39.6,82.2,39.2,82.7,38.6,82.8z"/>
	</g>
	<g id="XMLID_112_" class="st8">
		<g id="XMLID_122_" class="st20">
			<path id="XMLID_5_" class="st21" d="M54.3,83.3l-0.4,0.3l0,1c0,0.3-0.3,0.5-0.5,0.5l0,0c-0.3,0-0.5-0.2-0.5-0.5l0-0.4
				c0-0.1-0.1-0.2-0.2-0.2l0,0c-0.1,0-0.2,0.1-0.2,0.1l0,0.4c0,0.3-0.2,0.5-0.5,0.5h0c-0.3,0-0.5-0.2-0.5-0.5l0-0.4
				c0-0.1-0.1-0.2-0.2-0.2l0,0c-0.1,0-0.2,0.1-0.2,0.2l0,0.4c0,0.3-0.2,0.5-0.5,0.5l0,0c-0.3,0-0.5-0.2-0.5-0.5l0-0.4
				c0-0.1-0.1-0.2-0.2-0.2h0c-0.1,0-0.2,0.1-0.2,0.1l0,0.4c0,0.3-0.2,0.5-0.5,0.5l0,0c-0.3,0-0.5-0.2-0.5-0.5l0-1l-0.4-0.3
				c-1-0.9-1.6-2.1-1.7-3.5c-0.2-2.8,2-5.2,4.8-5.1c2.8,0,5,2.5,4.8,5.3C56,81.3,55.3,82.5,54.3,83.3L54.3,83.3z"/>
		</g>
		<g id="XMLID_118_" class="st20">
			<path id="XMLID_119_" class="st2" d="M51.2,74.6C51.3,74.6,51.3,74.6,51.2,74.6c2.9,0,5.1,2.5,4.9,5.3c-0.1,1.4-0.8,2.6-1.8,3.4
				l-0.4,0.3l0,1c0,0.3-0.2,0.5-0.5,0.5c0,0,0,0,0,0l0,0c-0.3,0-0.5-0.2-0.5-0.5l0-0.4c0-0.1-0.1-0.2-0.2-0.2h0c0,0,0,0,0,0
				c-0.1,0-0.2,0.1-0.2,0.1l0,0.4c0,0.3-0.2,0.5-0.5,0.5c0,0,0,0,0,0c-0.3,0-0.5-0.2-0.5-0.5l0-0.4c0-0.1-0.1-0.2-0.2-0.2
				c0,0,0,0,0,0c-0.1,0-0.2,0.1-0.2,0.2l0,0.4c0,0.3-0.2,0.5-0.5,0.5c0,0,0,0,0,0c-0.3,0-0.5-0.2-0.5-0.5l0-0.4
				c0-0.1-0.1-0.2-0.2-0.2c0,0,0,0,0,0c-0.1,0-0.2,0.1-0.2,0.1l0,0.4c0,0.3-0.2,0.5-0.5,0.5c0,0,0,0,0,0l0,0c-0.3,0-0.5-0.2-0.5-0.5
				l0-1l-0.4-0.3c-1-0.9-1.6-2.1-1.7-3.5C46.3,77,48.4,74.6,51.2,74.6L51.2,74.6z M51.2,73.7L51.2,73.7c-1.6,0-3,0.6-4.1,1.7
				c-1.1,1.1-1.6,2.7-1.6,4.3c0.1,1.6,0.8,3.1,2,4.1l0.1,0.1l0,0.6c0,0.7,0.6,1.3,1.4,1.4c0,0,0,0,0,0c0.2,0,0.4-0.1,0.6-0.1
				c0.2,0.1,0.4,0.2,0.7,0.2c0,0,0,0,0,0c0.3,0,0.5-0.1,0.7-0.2c0.2,0.1,0.5,0.2,0.7,0.2c0,0,0,0,0,0c0.2,0,0.4-0.1,0.6-0.2
				c0.2,0.1,0.4,0.2,0.7,0.2c0,0,0,0,0,0c0.8,0,1.4-0.6,1.4-1.3l0-0.6l0.1-0.1c1.2-1,2-2.5,2.1-4c0.1-1.6-0.4-3.2-1.5-4.4
				C54.4,74.4,52.9,73.7,51.2,73.7C51.3,73.7,51.3,73.7,51.2,73.7L51.2,73.7z"/>
		</g>
		<g id="XMLID_113_" class="st20">
			<g id="XMLID_116_">
				<path id="XMLID_2_" class="st22" d="M49.4,78.6c-0.8,0-1.3,0.6-1.3,1.4c0,0.7,0.7,1.3,1.4,1.3c0.7,0,1.3-0.6,1.3-1.3
					C50.8,79.2,50.1,78.6,49.4,78.6L49.4,78.6z"/>
			</g>
			<g id="XMLID_114_">
				<path id="XMLID_1_" class="st22" d="M53.1,78.5c-0.8,0-1.4,0.6-1.4,1.4c0,0.7,0.6,1.3,1.3,1.3c0.7,0,1.4-0.6,1.4-1.3
					C54.5,79.2,53.9,78.5,53.1,78.5L53.1,78.5z"/>
			</g>
		</g>
	</g>
</g>
</svg>
